<?xml version="1.0" standalone="no"?>
<!DOCTYPE svg PUBLIC "-//W3C//DTD SVG 20010904//EN"
 "http://www.w3.org/TR/2001/REC-SVG-20010904/DTD/svg10.dtd">
<svg version="1.0" xmlns="http://www.w3.org/2000/svg"
 width="100.000000pt" height="100.000000pt" viewBox="0 0 100.000000 100.000000"
 preserveAspectRatio="xMidYMid meet">
<metadata>
Created by potrace 1.14, written by Peter Selinger 2001-2017
</metadata>
<g transform="translate(0.000000,100.000000) scale(0.100000,-0.100000)"
fill="#000000" stroke="none">
<path d="M220 894 c-14 -7 -33 -14 -42 -14 -20 0 -47 -46 -42 -73 4 -30 35
-57 64 -57 41 0 57 -43 30 -77 -11 -14 -20 -36 -20 -49 0 -17 -6 -24 -19 -24
-18 0 -33 -33 -86 -198 -24 -75 -19 -82 61 -82 l66 0 -6 -27 c-10 -39 -9 -41
2 -111 17 -98 10 -95 255 -97 117 0 224 3 239 8 27 9 37 23 44 67 48 279 69
419 66 428 -2 7 -12 12 -23 12 -24 0 -24 5 2 42 12 17 27 27 35 24 22 -8 67
37 67 67 0 31 -25 63 -57 73 -11 4 -26 14 -32 22 -15 21 -69 19 -94 -3 -23
-21 -27 -71 -6 -94 13 -14 12 -19 -5 -41 -14 -19 -21 -22 -27 -12 -5 7 -7 24
-5 36 5 26 -38 65 -92 83 -30 10 -40 10 -102 -2 -31 -6 -103 -65 -103 -85 0
-6 -8 -6 -24 1 -32 15 -48 68 -30 102 15 28 5 74 -19 89 -18 12 -69 8 -97 -8z"/>
<path d="M131 666 c-9 -10 -8 -16 4 -26 19 -16 41 1 32 24 -8 20 -21 20 -36 2z"/>
<path d="M834 476 c-7 -17 32 -143 47 -152 6 -3 16 -1 24 6 11 9 10 22 -10 77
-23 68 -50 98 -61 69z"/>
</g>
</svg>
